<mxfile host="app.diagrams.net" agent="Mozilla/5.0 (Windows NT 10.0; Win64; x64) AppleWebKit/537.36 (KHTML, like Gecko) Chrome/141.0.0.0 Safari/537.36" version="28.2.8">
  <diagram id="WWiT_7840ZvR4xr2yh1D" name="Trang-1">
    <mxGraphModel dx="1042" dy="574" grid="0" gridSize="10" guides="1" tooltips="1" connect="1" arrows="1" fold="1" page="1" pageScale="1" pageWidth="850" pageHeight="1100" math="0" shadow="0">
      <root>
        <mxCell id="0" />
        <mxCell id="1" parent="0" />
        <mxCell id="acNHtzId5SN_tLXhN2Zz-1" value="&lt;div style=&quot;font-weight:bold;&quot;&gt;Giảng viên&lt;/div&gt;&lt;hr/&gt;- maGV: String&lt;br/&gt;- tenGV: String&lt;br/&gt;- trinhDo: String&lt;br/&gt; &lt;hr/&gt;+ dayLop()&lt;br/&gt;+ chamDiem()" style="rounded=0;whiteSpace=wrap;html=1;strokeColor=#000000;fillColor=#ffffff;fontSize=12;" vertex="1" parent="1">
          <mxGeometry x="109" y="128" width="200" height="120" as="geometry" />
        </mxCell>
        <mxCell id="acNHtzId5SN_tLXhN2Zz-2" value="&lt;div style=&quot;font-weight:bold;&quot;&gt;Lớp học&lt;/div&gt;&lt;hr/&gt;- maLop: String&lt;br/&gt;- tenLop: String&lt;br/&gt;- phongHoc: String&lt;br/&gt;- lichHoc: String&lt;br/&gt;&lt;hr/&gt;+ themSinhVien()&lt;br/&gt;+ hienThiThongTin()" style="rounded=0;whiteSpace=wrap;html=1;strokeColor=#000000;fillColor=#ffffff;fontSize=12;" vertex="1" parent="1">
          <mxGeometry x="468" y="118" width="220" height="140" as="geometry" />
        </mxCell>
        <mxCell id="acNHtzId5SN_tLXhN2Zz-3" value="&lt;div style=&quot;font-weight:bold;&quot;&gt;Sinh viên&lt;/div&gt;&lt;hr/&gt;- maSV: String&lt;br/&gt;- tenSV: String&lt;br/&gt;- nganhHoc: String&lt;br/&gt;- khoaHoc: String&lt;br/&gt;&lt;hr/&gt;+ dangKyLop()&lt;br/&gt;+ xemLopDangHoc()" style="rounded=0;whiteSpace=wrap;html=1;strokeColor=#000000;fillColor=#ffffff;fontSize=12;" vertex="1" parent="1">
          <mxGeometry x="468" y="384" width="220" height="140" as="geometry" />
        </mxCell>
        <mxCell id="acNHtzId5SN_tLXhN2Zz-4" style="edgeStyle=orthogonalEdgeStyle;rounded=0;orthogonalLoop=1;jettySize=auto;html=1;" edge="1" parent="1" source="acNHtzId5SN_tLXhN2Zz-1" target="acNHtzId5SN_tLXhN2Zz-2">
          <mxGeometry relative="1" as="geometry" />
        </mxCell>
        <mxCell id="acNHtzId5SN_tLXhN2Zz-5" style="edgeStyle=orthogonalEdgeStyle;rounded=0;orthogonalLoop=1;jettySize=auto;html=1;entryX=0.5;entryY=0;entryDx=0;entryDy=0;" edge="1" parent="1" source="acNHtzId5SN_tLXhN2Zz-2" target="acNHtzId5SN_tLXhN2Zz-3">
          <mxGeometry relative="1" as="geometry">
            <mxPoint x="854" y="378" as="targetPoint" />
          </mxGeometry>
        </mxCell>
        <mxCell id="acNHtzId5SN_tLXhN2Zz-6" value="1..*" style="text;html=1;whiteSpace=wrap;strokeColor=none;fillColor=none;align=center;verticalAlign=middle;rounded=0;fontSize=14;" vertex="1" parent="1">
          <mxGeometry x="312" y="197" width="60" height="30" as="geometry" />
        </mxCell>
        <mxCell id="acNHtzId5SN_tLXhN2Zz-7" value="*..*" style="text;html=1;whiteSpace=wrap;strokeColor=none;fillColor=none;align=center;verticalAlign=middle;rounded=0;fontSize=14;" vertex="1" parent="1">
          <mxGeometry x="574" y="302" width="71" height="32" as="geometry" />
        </mxCell>
      </root>
    </mxGraphModel>
  </diagram>
</mxfile>
